<svg width="2228" height="610" viewBox="0 0 2228 610" fill="none" xmlns="http://www.w3.org/2000/svg">
<path d="M689.832 596.528L345.227 0L293.599 88.3284L459.059 375.085H286.134L233.262 466.523H511.932L587.197 596.528H689.832Z" fill="white"/>
<path d="M310.394 236.372L362.644 327.81H257.521L155.508 504.467H465.279L518.152 595.906H0L207.758 236.372H310.394Z" fill="white"/>
<path d="M767.193 599.823L891.025 224.73H1027.19L1155.65 599.823H1068.3L1037.98 506.82H881.262L851.46 599.823H767.193ZM903.357 436.94H1014.86L968.099 293.582H949.087L903.357 436.94ZM1200.04 599.823V285.361H1166.64V224.73H1282.76V599.823H1200.04ZM1412.98 599.823L1328.71 318.246H1413.49L1473.61 531.484H1485.43L1537.33 318.246H1616.46L1543.49 599.823H1412.98ZM1787.55 609.586C1691.47 609.586 1641.11 536.622 1641.11 464.173V453.896C1641.11 378.878 1692.49 308.483 1784.47 308.483C1874.9 308.483 1924.74 376.822 1924.74 452.869V480.615H1718.7C1724.35 518.638 1745.93 542.788 1787.55 542.788C1817.35 542.788 1837.39 530.456 1844.07 512.473H1919.61C1907.27 570.021 1857.95 609.586 1787.55 609.586ZM1784.47 375.281C1748.5 375.281 1726.41 395.834 1719.73 433.857H1846.13C1840.99 396.348 1819.92 375.281 1784.47 375.281ZM2086.1 608.558C2006.45 608.558 1958.67 574.132 1956.1 514.528H2029.06C2031.63 532.512 2049.62 548.954 2087.64 548.954C2115.9 548.954 2137.48 539.192 2137.48 520.18C2137.48 503.737 2125.15 493.975 2088.15 489.864L2066.06 487.809C1998.75 480.615 1964.32 448.758 1964.32 400.458C1964.32 340.854 2013.13 310.025 2080.96 310.025C2153.41 310.025 2201.19 342.91 2203.76 403.027H2130.8C2128.23 385.043 2111.79 370.143 2079.93 370.143C2054.24 370.143 2038.31 380.419 2038.31 396.862C2038.31 412.79 2050.64 420.498 2079.93 423.581L2102.03 425.636C2170.88 433.343 2211.47 465.2 2211.47 516.583C2211.47 573.104 2162.66 608.558 2086.1 608.558Z" fill="white"/>
<path d="M1379.09 279.725C1347.59 279.725 1335.33 254.724 1335.33 234.772V232.488C1335.33 210.973 1348.2 187.655 1378.24 187.655C1400.72 187.655 1414.66 200.276 1416.95 219.627H1407.69C1405.65 204.002 1393.63 196.069 1378.24 196.069C1356.13 196.069 1344.59 213.137 1344.59 233.69C1344.59 253.162 1356.01 271.311 1379.09 271.311C1395.07 271.311 1406.85 263.018 1409.37 247.753H1418.63C1415.99 265.902 1402.4 279.725 1379.09 279.725ZM1463.58 279.725C1441.82 279.725 1430.04 262.897 1430.04 246.671V244.988C1430.04 228.522 1442.42 211.935 1463.58 211.935C1484.85 211.935 1497.11 228.522 1497.11 244.988V246.671C1497.11 262.897 1485.33 279.725 1463.58 279.725ZM1463.58 271.672C1479.32 271.672 1488.22 260.013 1488.22 245.83C1488.22 231.406 1478.84 220.108 1463.58 220.108C1448.31 220.108 1439.06 231.406 1439.06 245.83C1439.06 260.013 1447.95 271.672 1463.58 271.672ZM1515.49 277.682V214.098H1522.71V228.882C1525.59 218.305 1533.04 212.175 1545.18 212.175H1545.54C1561.53 212.175 1569.34 222.752 1569.34 240.782V277.682H1560.45V238.858C1560.45 227.8 1553.96 220.469 1543.14 220.469C1531.84 220.469 1524.51 228.041 1524.51 239.459V277.682H1515.49ZM1614.87 278.403C1601.77 278.403 1593.35 273.234 1593.35 257.489V220.949H1581.93V214.098H1593.35V194.026H1602.01V214.098H1624.96V220.949H1602.01V258.811C1602.01 266.143 1606.21 270.229 1613.55 270.229H1624.96V278.403H1614.87ZM1659.33 279.364C1645.75 279.364 1636.62 272.032 1636.62 258.931C1636.62 246.19 1645.63 238.979 1661.62 238.979H1679.41V235.974C1679.41 226.478 1674.6 221.31 1664.14 221.31C1657.05 221.31 1649.12 221.671 1644.07 222.151V214.218C1649.12 213.738 1655.49 213.377 1660.9 213.377C1680.25 213.377 1688.06 220.228 1688.06 236.815V277.682H1680.85V264.7C1677.96 274.436 1670.15 279.364 1659.33 279.364ZM1661.02 272.153C1669.79 272.153 1678.93 267.826 1679.41 254.243V245.83H1661.02C1650.92 245.83 1645.39 251.239 1645.39 259.051C1645.39 267.104 1651.4 272.153 1661.02 272.153ZM1743.39 279.725C1731.25 279.725 1722.12 273.475 1717.79 263.258V277.682H1710.58V189.939H1719.59V226.478C1724.28 216.983 1733.17 211.935 1743.99 211.935C1762.74 211.935 1774.52 227.199 1774.52 244.868V246.551C1774.52 263.859 1762.62 279.725 1743.39 279.725ZM1742.43 271.792C1756.73 271.792 1765.51 260.253 1765.51 245.71C1765.51 230.805 1756.49 219.868 1742.43 219.868C1729.33 219.868 1719.23 229.123 1719.23 243.185V249.075C1719.23 262.537 1729.33 271.792 1742.43 271.792ZM1798.03 202.319C1793.7 202.319 1791.54 199.795 1791.54 196.189C1791.54 192.583 1793.7 190.059 1798.03 190.059C1802.36 190.059 1804.4 192.583 1804.4 196.189C1804.4 199.795 1802.36 202.319 1798.03 202.319ZM1796.11 277.682V221.31H1785.89V214.098H1805V277.682H1796.11ZM1829.26 277.682V197.271H1820.01V189.939H1838.27V277.682H1829.26ZM1866.93 202.319C1862.6 202.319 1860.44 199.795 1860.44 196.189C1860.44 192.583 1862.6 190.059 1866.93 190.059C1871.26 190.059 1873.3 192.583 1873.3 196.189C1873.3 199.795 1871.26 202.319 1866.93 202.319ZM1865.01 277.682V221.31H1854.79V214.098H1873.9V277.682H1865.01ZM1923.64 279.725C1905.01 279.725 1892.51 264.58 1892.51 246.671V244.988C1892.51 227.68 1904.53 211.935 1923.4 211.935C1933.98 211.935 1942.63 216.742 1947.44 225.637V189.939H1956.46V277.682H1949.24V263.378C1944.68 274.196 1935.06 279.725 1923.64 279.725ZM1924.84 271.792C1937.95 271.792 1947.8 262.417 1947.8 248.354V242.584C1947.8 229.123 1937.83 219.868 1924.72 219.868C1910.42 219.868 1901.53 231.166 1901.53 245.83C1901.53 260.974 1910.78 271.792 1924.84 271.792ZM1996.91 279.364C1983.33 279.364 1974.2 272.032 1974.2 258.931C1974.2 246.19 1983.21 238.979 1999.2 238.979H2016.99V235.974C2016.99 226.478 2012.18 221.31 2001.72 221.31C1994.63 221.31 1986.7 221.671 1981.65 222.151V214.218C1986.7 213.738 1993.07 213.377 1998.48 213.377C2017.83 213.377 2025.64 220.228 2025.64 236.815V277.682H2018.43V264.7C2015.54 274.436 2007.73 279.364 1996.91 279.364ZM1998.6 272.153C2007.37 272.153 2016.5 267.826 2016.99 254.243V245.83H1998.6C1988.5 245.83 1982.97 251.239 1982.97 259.051C1982.97 267.104 1988.98 272.153 1998.6 272.153ZM2074.24 279.725C2055.61 279.725 2043.11 264.58 2043.11 246.671V244.988C2043.11 227.68 2055.13 211.935 2074 211.935C2084.58 211.935 2093.23 216.742 2098.04 225.637V189.939H2107.05V277.682H2099.84V263.378C2095.27 274.196 2085.66 279.725 2074.24 279.725ZM2075.44 271.792C2088.54 271.792 2098.4 262.417 2098.4 248.354V242.584C2098.4 229.123 2088.42 219.868 2075.32 219.868C2061.02 219.868 2052.12 231.166 2052.12 245.83C2052.12 260.974 2061.38 271.792 2075.44 271.792ZM2156.88 279.725C2134.89 279.725 2125.27 263.018 2125.27 246.551V244.868C2125.27 228.401 2135.25 211.935 2156.16 211.935C2176.12 211.935 2186.21 226.959 2186.21 242.584V247.272H2133.93C2134.41 260.974 2141.62 271.792 2156.88 271.792C2167.94 271.792 2175.15 266.023 2176.72 259.051H2185.13C2182.49 271.792 2172.03 279.725 2156.88 279.725ZM2156.16 219.868C2143.18 219.868 2135.85 228.522 2134.29 240.301H2177.44C2176.36 228.161 2169.02 219.868 2156.16 219.868Z" fill="white"/>
</svg>
